<svg width="209" height="34" viewBox="0 0 209 34" fill="none" xmlns="http://www.w3.org/2000/svg">
<path fill-rule="evenodd" clip-rule="evenodd" d="M0 0.407959H3.46479V7.96293L4.94707 6.88316L9.74389 0.407959H12.1545L7.20672 6.78294L13.31 16.722H8.91434L4.54555 9.39331L3.46479 10.1466V16.722H0V0.407959Z" fill="#00A8E9"/>
<path fill-rule="evenodd" clip-rule="evenodd" d="M26.2162 2.21513H21.8464V16.722H18.356V2.21513H13.9614V0.407959H26.2162V2.21513Z" fill="#00A8E9"/>
<path fill-rule="evenodd" clip-rule="evenodd" d="M39.6768 1.91379L31.8163 14.9148H39.652V16.722H27.6226V15.2661L35.4827 2.21513H28.0744V0.407959H39.6768V1.91379Z" fill="#00A8E9"/>
<path fill-rule="evenodd" clip-rule="evenodd" d="M59.288 16.722H49.1431V0.407959H58.9365V2.21513H52.6079V7.5861H58.1836V9.34342H52.6079V14.9148H59.288V16.722Z" fill="#00A8E9"/>
<path fill-rule="evenodd" clip-rule="evenodd" d="M65.6416 8.79091L60.7952 0.407959H65.1387L68.1525 6.25557H68.2283L71.7187 0.407959H74.1803L69.4083 7.93743L74.7575 16.722H70.4384L66.9477 10.4979H66.8722L63.181 16.722H60.5684L65.6416 8.79091Z" fill="#00A8E9"/>
<path fill-rule="evenodd" clip-rule="evenodd" d="M76.8921 0.407959H81.8895C85.5052 0.407959 87.7649 2.18963 87.7649 5.92978C87.7649 10.0956 84.6013 11.6273 81.9639 11.6273H80.3566V16.722H76.8921V0.407959ZM80.3566 2.03951V10.0209H81.5628C83.1191 10.0209 84.0245 9.19214 84.0245 6.07995C84.0245 2.99283 83.1453 2.03951 81.5628 2.03951H80.3566Z" fill="#00A8E9"/>
<path fill-rule="evenodd" clip-rule="evenodd" d="M101.175 5.52818C101.175 7.76177 99.8937 9.29273 98.3619 10.0956L102.129 16.722H98.1369L95.0721 10.7986H93.7408V16.722H90.2764V0.407959H95.2985C98.9402 0.407959 101.175 2.26545 101.175 5.52818ZM93.7408 2.03951V9.14225H95.0225C96.8304 9.14225 97.4335 8.31422 97.4335 5.67902C97.4335 3.09378 96.7549 2.03951 94.947 2.03951H93.7408Z" fill="#00A8E9"/>
<path fill-rule="evenodd" clip-rule="evenodd" d="M114.935 16.722H104.79V0.407959H114.583V2.21513H108.255V7.5861H113.831V9.34342H108.255V14.9148H114.935V16.722Z" fill="#00A8E9"/>
<path fill-rule="evenodd" clip-rule="evenodd" d="M126.386 3.01835C126.386 3.01835 124.753 1.91381 122.995 1.91381C121.74 1.91381 120.886 2.64157 120.886 3.94728C120.886 7.4604 127.491 6.65719 127.491 12.0788C127.491 15.2159 124.905 16.9983 121.74 16.9983C117.998 16.9983 116.793 15.0154 116.793 15.0154L117.746 13.5595C117.746 13.5595 119.028 15.1411 121.514 15.1411C123.146 15.1411 123.999 14.187 123.999 12.8565C123.999 9.69472 117.47 10.2213 117.47 5.02637C117.47 2.01403 119.681 0.157227 122.77 0.157227C125.029 0.157227 126.788 1.31177 126.788 1.31177L126.386 3.01835Z" fill="#00A8E9"/>
<path fill-rule="evenodd" clip-rule="evenodd" d="M138.74 3.01835C138.74 3.01835 137.108 1.91381 135.35 1.91381C134.095 1.91381 133.241 2.64157 133.241 3.94728C133.241 7.4604 139.846 6.65719 139.846 12.0788C139.846 15.2159 137.26 16.9983 134.095 16.9983C130.353 16.9983 129.148 15.0154 129.148 15.0154L130.101 13.5595C130.101 13.5595 131.383 15.1411 133.869 15.1411C135.501 15.1411 136.354 14.187 136.354 12.8565C136.354 9.69472 129.825 10.2213 129.825 5.02637C129.825 2.01403 132.036 0.157227 135.125 0.157227C137.385 0.157227 139.143 1.31177 139.143 1.31177L138.74 3.01835Z" fill="#00A8E9"/>
<path fill-rule="evenodd" clip-rule="evenodd" d="M176.294 9.5508C176.294 9.5508 174.842 0 167.809 0C161.158 0 146.859 0.0761884 146.859 0.0761884C146.859 0.0761884 148.312 9.62693 155.345 9.62693C161.996 9.62693 176.294 9.5508 176.294 9.5508Z" fill="#00A8E9"/>
<path fill-rule="evenodd" clip-rule="evenodd" d="M198.654 12.3008L152.937 12.3389C152.937 12.3389 154.389 21.8893 161.423 21.8893C165.47 21.8893 200.145 21.8512 200.145 21.8512C204.694 21.8512 207.637 26.4359 207.637 26.4359C207.637 12.2635 198.654 12.3008 198.654 12.3008Z" fill="#00A8E9"/>
<path fill-rule="evenodd" clip-rule="evenodd" d="M149.379 31.0955C150.66 32.7191 152.484 34.0001 155.058 34.0001C161.71 34.0001 208.25 33.9247 208.25 33.9247C208.25 33.9247 208.059 32.6821 207.49 31.0955H149.379Z" fill="#B38456"/>
<path fill-rule="evenodd" clip-rule="evenodd" d="M206.093 28.1921C204.806 26.1626 202.809 24.3733 199.764 24.3733C193.113 24.3733 146.573 24.4498 146.573 24.4498C146.573 24.4498 146.839 26.1949 147.692 28.1921H206.093Z" fill="#B38456"/>
<path fill-rule="evenodd" clip-rule="evenodd" d="M0 33.3725H3.48621V32.6942H0.808751V27.1101H0V33.3725ZM10.3063 27.0078C8.63289 27.0078 7.39642 28.3086 7.39642 30.297C7.39642 32.1925 8.5585 33.4747 10.2134 33.4747C11.8123 33.4747 13.1232 32.3319 13.1232 30.1762C13.1232 28.3179 12.0168 27.0078 10.3063 27.0078ZM10.269 27.6676C11.617 27.6676 12.2679 28.9683 12.2679 30.2134C12.2679 31.6351 11.5428 32.815 10.2598 32.815C8.98605 32.815 8.26103 31.6164 8.26103 30.2784C8.26103 28.9033 8.93036 27.6676 10.269 27.6676ZM22.6858 30.0832H20.622V30.7337H21.8956V32.6013C21.7096 32.6942 21.347 32.7686 20.8171 32.7686C19.3576 32.7686 18.4 31.83 18.4 30.2412C18.4 28.671 19.3947 27.7234 20.9194 27.7234C21.5516 27.7234 21.97 27.844 22.3046 27.9928L22.4998 27.333C22.2303 27.203 21.6632 27.045 20.938 27.045C18.8369 27.045 17.5539 28.4109 17.5448 30.2784C17.5448 31.254 17.8793 32.0903 18.4186 32.6106C19.0322 33.196 19.813 33.4375 20.7614 33.4375C21.6073 33.4375 22.3233 33.2238 22.6858 33.0938V30.0832ZM27.6651 27.1101V33.3725H28.4739V27.1101H27.6651ZM33.3138 33.0659C33.6485 33.2889 34.3086 33.4747 34.9129 33.4747C36.391 33.4747 37.1068 32.6292 37.1068 31.6628C37.1068 30.743 36.5678 30.232 35.5079 29.8231C34.6432 29.4887 34.2622 29.2006 34.2622 28.6152C34.2622 28.1879 34.5876 27.6769 35.4428 27.6769C36.01 27.6769 36.4283 27.8627 36.6328 27.9742L36.8559 27.3144C36.5769 27.1565 36.1121 27.0078 35.4707 27.0078C34.2528 27.0078 33.444 27.7325 33.444 28.7082C33.444 29.5908 34.0762 30.1205 35.0988 30.4828C35.9447 30.808 36.2795 31.1426 36.2795 31.7279C36.2795 32.3596 35.7961 32.7965 34.9686 32.7965C34.4108 32.7965 33.8809 32.6106 33.5183 32.3875L33.3138 33.0659ZM43.1461 33.3725H43.964V27.7976H45.8792V27.1101H41.2401V27.7976H43.1461V33.3725ZM50.3195 27.1101V33.3725H51.1283V27.1101H50.3195ZM60.4957 32.5269C60.1703 32.685 59.6682 32.7871 59.1756 32.7871C57.6509 32.7871 56.7677 31.8022 56.7677 30.2691C56.7677 28.6246 57.7438 27.6861 59.2127 27.6861C59.7334 27.6861 60.1703 27.7976 60.4771 27.9463L60.6723 27.2865C60.4586 27.1751 59.9658 27.0078 59.1848 27.0078C57.2419 27.0078 55.9125 28.3365 55.9125 30.297C55.9125 32.3505 57.2419 33.4747 59.0082 33.4747C59.7705 33.4747 60.3656 33.3167 60.6631 33.1681L60.4957 32.5269ZM65.1031 33.0659C65.4379 33.2889 66.098 33.4747 66.7023 33.4747C68.1804 33.4747 68.8962 32.6292 68.8962 31.6628C68.8962 30.743 68.3571 30.232 67.2972 29.8231C66.4326 29.4887 66.0515 29.2006 66.0515 28.6152C66.0515 28.1879 66.3769 27.6769 67.2322 27.6769C67.7993 27.6769 68.2177 27.8627 68.4222 27.9742L68.6452 27.3144C68.3663 27.1565 67.9015 27.0078 67.2601 27.0078C66.0422 27.0078 65.2334 27.7325 65.2334 28.7082C65.2334 29.5908 65.8656 30.1205 66.8882 30.4828C67.7341 30.808 68.0689 31.1426 68.0689 31.7279C68.0689 32.3596 67.5854 32.7965 66.758 32.7965C66.2002 32.7965 65.6703 32.6106 65.3077 32.3875L65.1031 33.0659ZM77.371 33.0659C77.7057 33.2889 78.3658 33.4747 78.9701 33.4747C80.4482 33.4747 81.164 32.6292 81.164 31.6628C81.164 30.743 80.6249 30.232 79.565 29.8231C78.7004 29.4887 78.3194 29.2006 78.3194 28.6152C78.3194 28.1879 78.6447 27.6769 79.5 27.6769C80.0671 27.6769 80.4855 27.8627 80.69 27.9742L80.913 27.3144C80.6342 27.1565 80.1693 27.0078 79.5279 27.0078C78.31 27.0078 77.5012 27.7325 77.5012 28.7082C77.5012 29.5908 78.1334 30.1205 79.156 30.4828C80.0019 30.808 80.3367 31.1426 80.3367 31.7279C80.3367 32.3596 79.8533 32.7965 79.0258 32.7965C78.468 32.7965 77.9381 32.6106 77.5755 32.3875L77.371 33.0659ZM89.2577 29.7674H86.8221V27.7884H89.3972V27.1101H86.0133V33.3725H89.5366V32.6942H86.8221V30.4364H89.2577V29.7674ZM94.3302 33.3725H95.1389V30.6595H95.9013C96.6358 30.6872 96.9703 31.0124 97.1563 31.8765C97.333 32.6571 97.4724 33.1866 97.5746 33.3725H98.4115C98.2813 33.1308 98.1324 32.5269 97.9279 31.6536C97.7793 31.0032 97.4911 30.5572 97.0076 30.3899V30.362C97.6676 30.1391 98.1883 29.5908 98.1883 28.7639C98.1883 28.2808 98.0117 27.8534 97.6955 27.5746C97.3051 27.2215 96.7473 27.0636 95.8827 27.0636C95.3249 27.0636 94.7392 27.1101 94.3302 27.1936V33.3725ZM95.1389 27.7604C95.2691 27.7234 95.5479 27.6861 95.9385 27.6861C96.7938 27.6955 97.3795 28.0485 97.3795 28.8569C97.3795 29.5723 96.8309 30.0462 95.9663 30.0462H95.1389V27.7604ZM105.492 33.3725L107.732 27.1101H106.868L105.808 30.2041C105.529 31.0218 105.269 31.8115 105.092 32.5363H105.073C104.906 31.8022 104.674 31.0403 104.404 30.1947L103.428 27.1101H102.554L104.599 33.3725H105.492ZM112.154 27.1101V33.3725H112.963V27.1101H112.154ZM122.33 32.5269C122.005 32.685 121.503 32.7871 121.01 32.7871C119.485 32.7871 118.602 31.8022 118.602 30.2691C118.602 28.6246 119.578 27.6861 121.047 27.6861C121.568 27.6861 122.005 27.7976 122.312 27.9463L122.507 27.2865C122.293 27.1751 121.8 27.0078 121.019 27.0078C119.076 27.0078 117.747 28.3365 117.747 30.297C117.747 32.3505 119.076 33.4747 120.843 33.4747C121.605 33.4747 122.2 33.3167 122.497 33.1681L122.33 32.5269ZM130.498 29.7674H128.062V27.7884H130.638V27.1101H127.254V33.3725H130.777V32.6942H128.062V30.4364H130.498V29.7674ZM135.254 33.0659C135.589 33.2889 136.249 33.4747 136.854 33.4747C138.332 33.4747 139.047 32.6292 139.047 31.6628C139.047 30.743 138.508 30.232 137.448 29.8231C136.584 29.4887 136.203 29.2006 136.203 28.6152C136.203 28.1879 136.528 27.6769 137.383 27.6769C137.951 27.6769 138.369 27.8627 138.573 27.9742L138.797 27.3144C138.518 27.1565 138.053 27.0078 137.411 27.0078C136.193 27.0078 135.385 27.7325 135.385 28.7082C135.385 29.5908 136.017 30.1205 137.04 30.4828C137.885 30.808 138.22 31.1426 138.22 31.7279C138.22 32.3596 137.737 32.7965 136.909 32.7965C136.351 32.7965 135.822 32.6106 135.459 32.3875L135.254 33.0659Z" fill="#B38456"/>
</svg>
